<svg id="Layer_2" data-name="Layer 2" xmlns="http://www.w3.org/2000/svg" viewBox="0 0 164.07832 83.83063">
  <defs>
    <style>
      .cls-1 {
        fill: #6bc1cf;
      }
    </style>
  </defs>
  <title>downarrow</title>
  <path class="cls-1" d="M337.46458,740.65407L310.74719,767.567a6.68976,6.68976,0,0,1-4.74759,1.97666h-0.00071a6.68976,6.68976,0,0,1-4.7476-1.97667L274.534,740.65407l-49.74525-50.10932a2.83465,2.83465,0,0,1,2.01169-4.83172h51.40146a11.33858,11.33858,0,0,1,8.04678,3.35029l15.72722,15.84236a5.66929,5.66929,0,0,0,8.04677,0l15.72727-15.84237a11.33858,11.33858,0,0,1,8.04677-3.35028h51.40141a2.83465,2.83465,0,0,1,2.01169,4.83172Z" transform="translate(-223.96009 -685.71303)"/>
</svg>
