<svg id="Layer_2" data-name="Layer 2" xmlns="http://www.w3.org/2000/svg" viewBox="0 0 434.31211 377.33203">
  <defs>
    <style>
      .cls-1 {
        fill: #6bc1cf;
      }

      .cls-2 {
        isolation: isolate;
      }
    </style>
  </defs>
  <title>logo</title>
  <g>
    <g>
      <path class="cls-1" d="M128.503,337.24341l83.7238-83.72382a11.33857,11.33857,0,0,0,3.321-8.01758V5.6693A5.66928,5.66928,0,0,0,209.87857,0H157.868a5.66929,5.66929,0,0,0-5.6693,5.66928V219.262a11.33856,11.33856,0,0,1-3.321,8.01758L102.263,273.89429a11.33856,11.33856,0,0,1-8.01759,3.321H5.98164a5.66928,5.66928,0,0,0-5.66929,5.66928v52.01056a5.66929,5.66929,0,0,0,5.66927,5.66931H120.48544A11.33859,11.33859,0,0,0,128.503,337.24341Z" transform="translate(-0.00014)"/>
      <path class="cls-1" d="M306.12164,337.24341l-83.72382-83.72382a11.33857,11.33857,0,0,1-3.321-8.01758V5.6693A5.66928,5.66928,0,0,1,224.74609,0h52.01053a5.66928,5.66928,0,0,1,5.66928,5.6693V219.262a11.33857,11.33857,0,0,0,3.321,8.01758l46.61472,46.61475a11.33857,11.33857,0,0,0,8.01758,3.321h88.26373a5.66931,5.66931,0,0,1,5.66931,5.66928h0v52.01056a5.6693,5.6693,0,0,1-5.66925,5.66931H314.13925A11.33862,11.33862,0,0,1,306.12164,337.24341Z" transform="translate(-0.00014)"/>
      <path class="cls-1" d="M249.15909,285.62335l-26.71738-26.91293a6.68977,6.68977,0,0,0-4.74759-1.97665h-0.0007a6.6898,6.6898,0,0,0-4.74759,1.97668l-26.71732,26.91293-49.74525,50.10934a2.83464,2.83464,0,0,0,2.01169,4.83173h51.40147a11.33867,11.33867,0,0,0,8.04678-3.35028l15.72717-15.84238a5.66929,5.66929,0,0,1,8.01755-.02924l0.02924,0.02924,15.72726,15.84238a11.33867,11.33867,0,0,0,8.04678,3.35028h51.40143a2.83466,2.83466,0,0,0,2.01169-4.83173Z" transform="translate(-0.00014)"/>
    </g>
    <g class="cls-2">
      <g class="cls-2">
        <path class="cls-1" d="M0.17676,374l1.76807-1.80176a0.65676,0.65676,0,0,1,1.01953.03418,2.95609,2.95609,0,0,0,2.24414,1.08789c1.32568,0,2.71973-1.08789,2.71973-3.43359v-16.0459a0.646,0.646,0,0,1,.646-0.64648h3.19531a0.646,0.646,0,0,1,.646.64648v16.0459c0,4.72559-3.16162,7.44531-7.13916,7.44531a6.51783,6.51783,0,0,1-5.16748-2.48145A0.7174,0.7174,0,0,1,.17676,374Z" transform="translate(-0.00014)"/>
        <path class="cls-1" d="M15.85059,376.1084l10.57275-22.87988a0.61088,0.61088,0,0,1,.57813-0.374h0.33984a0.57826,0.57826,0,0,1,.57813.374l10.4707,22.87988a0.60014,0.60014,0,0,1-.57764.88379h-2.958a0.97766,0.97766,0,0,1-.98584-0.67969l-1.66553-3.67187h-10.165l-1.666,3.67188a1.02422,1.02422,0,0,1-.98584.67969H16.42871A0.60022,0.60022,0,0,1,15.85059,376.1084Zm14.68652-7.24121-3.3999-7.47949H27.03564l-3.332,7.47949h6.8335Z" transform="translate(-0.00014)"/>
        <path class="cls-1" d="M44.95361,353.36426a0.57406,0.57406,0,0,1,.6123-0.50977h0.54395a0.6193,0.6193,0,0,1,.57764.33984L54.167,369.24121H54.269l7.479-16.04687a0.586,0.586,0,0,1,.57813-0.33984h0.54395a0.57357,0.57357,0,0,1,.61182.50977L67.49365,376.21a0.59043,0.59043,0,0,1-.61182.78223H63.78809a0.73651,0.73651,0,0,1-.646-0.50977l-2.00586-12.88477H61.03418L55.085,376.958a0.57781,0.57781,0,0,1-.57812.374H53.895a0.61088,0.61088,0,0,1-.57812-0.374L47.2998,363.59766H47.19775l-1.97168,12.88477a0.65809,0.65809,0,0,1-.6123.50977H41.5542a0.62285,0.62285,0,0,1-.646-0.78223Z" transform="translate(-0.00014)"/>
        <path class="cls-1" d="M73.13965,353.84082a0.646,0.646,0,0,1,.646-0.64648H87.62207a0.646,0.646,0,0,1,.646.64648v2.78711a0.646,0.646,0,0,1-.646.64648h-10.063v5.5752h8.39746a0.6681,0.6681,0,0,1,.64551.64551v2.82227a0.64481,0.64481,0,0,1-.64551.64551H77.55908v5.94922h10.063a0.646,0.646,0,0,1,.646.64648v2.78809a0.64523,0.64523,0,0,1-.646.64551H73.78564a0.64523,0.64523,0,0,1-.646-0.64551V353.84082Z" transform="translate(-0.00014)"/>
        <path class="cls-1" d="M92.72363,373.66016l1.22412-2.10742a0.78837,0.78837,0,0,1,1.15576-.23828c0.16992,0.10254,2.92383,2.1084,5.1333,2.1084a2.83859,2.83859,0,0,0,3.09375-2.61816c0-1.7334-1.46191-2.92383-4.31738-4.0791-3.1958-1.292-6.3916-3.332-6.3916-7.34375,0-3.02539,2.24414-6.52734,7.64941-6.52734a11.96247,11.96247,0,0,1,6.79932,2.27832,0.8411,0.8411,0,0,1,.2041,1.12109l-1.292,1.93848a0.89452,0.89452,0,0,1-1.18994.40723c-0.272-.16992-2.85547-1.86914-4.72559-1.86914-1.9375,0-2.9917,1.292-2.9917,2.37988,0,1.59766,1.25781,2.68555,4.01172,3.80762,3.29785,1.3252,7.10547,3.29688,7.10547,7.68262,0,3.502-3.02588,6.73145-7.81934,6.73145a10.9402,10.9402,0,0,1-7.47949-2.65137A0.67274,0.67274,0,0,1,92.72363,373.66016Z" transform="translate(-0.00014)"/>
      </g>
      <g class="cls-2">
        <path class="cls-1" d="M125.77148,376.1084l10.335-22.87988a0.61068,0.61068,0,0,1,.57764-0.374h0.34033a0.61068,0.61068,0,0,1,.57764.374l10.26709,22.87988a0.60022,0.60022,0,0,1-.57812.88379h-1.35986a0.62494,0.62494,0,0,1-.57764-0.374l-2.51562-5.60937H130.769l-2.48193,5.60938a0.62514,0.62514,0,0,1-.57812.374h-1.35986A0.60014,0.60014,0,0,1,125.77148,376.1084Zm16.14844-7.207c-1.666-3.70605-3.29785-7.44531-4.96387-11.15137h-0.272l-4.96338,11.15137h10.19922Z" transform="translate(-0.00014)"/>
        <path class="cls-1" d="M151.57715,353.84082a0.646,0.646,0,0,1,.646-0.64648h1.32568a0.66941,0.66941,0,0,1,.646.64648v20.874h9.791a0.64523,0.64523,0,0,1,.646.64551v0.98633a0.64523,0.64523,0,0,1-.646.64551h-11.7627a0.64523,0.64523,0,0,1-.646-0.64551V353.84082Z" transform="translate(-0.00014)"/>
        <path class="cls-1" d="M168.271,353.84082a0.646,0.646,0,0,1,.646-0.64648h13.39453a0.646,0.646,0,0,1,.646.64648v0.98535a0.646,0.646,0,0,1-.646.64648H170.88867v8.29492h9.75684a0.66854,0.66854,0,0,1,.646.64551v0.98633a0.64522,0.64522,0,0,1-.646.64551h-9.75684v8.66992h11.42285a0.64523,0.64523,0,0,1,.646.64551v0.98633a0.64523,0.64523,0,0,1-.646.64551H168.917a0.64523,0.64523,0,0,1-.646-0.64551V353.84082Z" transform="translate(-0.00014)"/>
        <path class="cls-1" d="M193.19238,364.78711L186.563,354.14648a0.61151,0.61151,0,0,1,.57813-0.95215h1.83545a0.70358,0.70358,0,0,1,.57813.30664l5.23535,9.00879h0.03418l5.30322-9.00879a0.65883,0.65883,0,0,1,.57813-0.30664h1.83594a0.61142,0.61142,0,0,1,.57764.95215l-6.62891,10.64063L203.35742,376.04a0.60719,0.60719,0,0,1-.57812.95215h-1.564a0.6907,0.6907,0,0,1-.57764-0.30566l-5.81348-9.62109H194.79l-5.74512,9.62109a0.66026,0.66026,0,0,1-.57812.30566h-1.564A0.61789,0.61789,0,0,1,186.291,376.04Z" transform="translate(-0.00014)"/>
      </g>
      <g class="cls-2">
        <path class="cls-1" d="M207.13281,376.1084l10.335-22.87988a0.61068,0.61068,0,0,1,.57764-0.374h0.34033a0.61068,0.61068,0,0,1,.57764.374l10.26709,22.87988a0.60008,0.60008,0,0,1-.57812.88379H227.293a0.62626,0.62626,0,0,1-.57812-0.374l-2.51562-5.60937H212.13037l-2.48193,5.60938a0.62514,0.62514,0,0,1-.57812.374h-1.35986A0.60014,0.60014,0,0,1,207.13281,376.1084Zm16.14844-7.207c-1.666-3.70605-3.29785-7.44531-4.96387-11.15137h-0.272L213.082,368.90137h10.19922Z" transform="translate(-0.00014)"/>
      </g>
    </g>
    <g class="cls-2">
      <path class="cls-1" d="M231.17285,353.4668a0.65062,0.65062,0,0,1,.665-0.6123h0.876l15.79395,19.10645h0.07031V353.84082a0.65489,0.65489,0,0,1,.66406-0.64648h1.22656a0.67967,0.67967,0,0,1,.665.64648V376.7207a0.64982,0.64982,0,0,1-.665.61133h-0.63086l-16.07324-19.47949h-0.03516v18.49414a0.655,0.655,0,0,1-.665.64551h-1.22656a0.67881,0.67881,0,0,1-.665-0.64551V353.4668Z" transform="translate(-0.00014)"/>
    </g>
    <g class="cls-2">
      <path class="cls-1" d="M254.74414,353.84082a0.62137,0.62137,0,0,1,.56934-0.64648h7.082c6.10254,0,11.09668,5.33789,11.09668,11.86523,0,6.59473-4.99414,11.93262-11.09668,11.93262h-7.082a0.62043,0.62043,0,0,1-.56934-0.64551V353.84082Zm7.14551,20.80566c5.18457,0,8.94727-3.97754,8.94727-9.58691,0-5.5752-3.7627-9.55371-8.94727-9.55371h-4.74219v19.14063h4.74219Z" transform="translate(-0.00014)"/>
    </g>
    <g class="cls-2">
      <path class="cls-1" d="M275.64453,353.84082a0.65513,0.65513,0,0,1,.665-0.64648h13.79785a0.65576,0.65576,0,0,1,.665.64648v0.98535a0.65576,0.65576,0,0,1-.665.64648h-11.7666v8.29492h10.0498a0.679,0.679,0,0,1,.666.64551v0.98633a0.65553,0.65553,0,0,1-.666.64551h-10.0498v8.66992h11.7666a0.655,0.655,0,0,1,.665.64551v0.98633a0.655,0.655,0,0,1-.665.64551H276.30957a0.65433,0.65433,0,0,1-.665-0.64551V353.84082Z" transform="translate(-0.00014)"/>
    </g>
    <g class="cls-2">
      <path class="cls-1" d="M293.29492,353.84082a0.63676,0.63676,0,0,1,.627-0.64648h8.54a7.1942,7.1942,0,0,1,7.18848,7.24121,7.57411,7.57411,0,0,1-4.88086,6.93555l4.51758,8.63477a0.643,0.643,0,0,1-.56055.98633h-1.68164a0.56344,0.56344,0,0,1-.52734-0.30566l-4.38477-9.00977H295.834v8.66992a0.65872,0.65872,0,0,1-.627.64551h-1.28516a0.63592,0.63592,0,0,1-.627-0.64551V353.84082Zm9.002,11.59277a4.88019,4.88019,0,0,0,0-9.75684h-6.39648v9.75684h6.39648Z" transform="translate(-0.00014)"/>
    </g>
    <g class="cls-2">
      <g class="cls-2">
        <path class="cls-1" d="M322.23633,353.84082a0.64647,0.64647,0,0,1,.64648-0.64648h3.127a0.66985,0.66985,0,0,1,.64648.64648v19.07129h8.66895a0.64563,0.64563,0,0,1,.64551.64648v2.78809a0.64481,0.64481,0,0,1-.64551.64551H322.88281a0.64565,0.64565,0,0,1-.64648-0.64551V353.84082Z" transform="translate(-0.00014)"/>
        <path class="cls-1" d="M339.40625,353.84082a0.64563,0.64563,0,0,1,.64551-0.64648h13.83691a0.64563,0.64563,0,0,1,.64551.64648v2.78711a0.64563,0.64563,0,0,1-.64551.64648H343.8252v5.5752h8.39746a0.6681,0.6681,0,0,1,.64551.64551v2.82227a0.64481,0.64481,0,0,1-.64551.64551H343.8252v5.94922h10.06348a0.64563,0.64563,0,0,1,.64551.64648v2.78809a0.64481,0.64481,0,0,1-.64551.64551H340.05176a0.64481,0.64481,0,0,1-.64551-0.64551V353.84082Z" transform="translate(-0.00014)"/>
        <path class="cls-1" d="M358.00391,373.66016l1.22461-2.10742a0.78784,0.78784,0,0,1,1.15527-.23828c0.16992,0.10254,2.92383,2.1084,5.13379,2.1084a2.83888,2.83888,0,0,0,3.09375-2.61816c0-1.7334-1.46191-2.92383-4.31738-4.0791-3.19629-1.292-6.3916-3.332-6.3916-7.34375,0-3.02539,2.24414-6.52734,7.64941-6.52734a11.95885,11.95885,0,0,1,6.79883,2.27832,0.8406,0.8406,0,0,1,.2041,1.12109l-1.292,1.93848a0.89383,0.89383,0,0,1-1.18945.40723c-0.27246-.16992-2.85547-1.86914-4.72559-1.86914-1.9375,0-2.99219,1.292-2.99219,2.37988,0,1.59766,1.25781,2.68555,4.01172,3.80762,3.29785,1.3252,7.10547,3.29688,7.10547,7.68262,0,3.502-3.02539,6.73145-7.81934,6.73145a10.94259,10.94259,0,0,1-7.47949-2.65137A0.67274,0.67274,0,0,1,358.00391,373.66016Z" transform="translate(-0.00014)"/>
        <path class="cls-1" d="M381.02148,357.27441h-5.20117a0.64647,0.64647,0,0,1-.64648-0.64648v-2.78711a0.64647,0.64647,0,0,1,.64648-0.64648h14.85645a0.64563,0.64563,0,0,1,.64551.64648v2.78711a0.64563,0.64563,0,0,1-.64551.64648h-5.20215v19.07227a0.6681,0.6681,0,0,1-.64551.64551H381.667a0.6681,0.6681,0,0,1-.64551-0.64551V357.27441Z" transform="translate(-0.00014)"/>
        <path class="cls-1" d="M394.85938,353.84082a0.64647,0.64647,0,0,1,.64648-0.64648H409.3418a0.64647,0.64647,0,0,1,.64648.64648v2.78711a0.64647,0.64647,0,0,1-.64648.64648H399.2793v5.5752h8.39648a0.66828,0.66828,0,0,1,.64648.64551v2.82227a0.645,0.645,0,0,1-.64648.64551H399.2793v5.94922h10.0625a0.64647,0.64647,0,0,1,.64648.64648v2.78809a0.64565,0.64565,0,0,1-.64648.64551H395.50586a0.64565,0.64565,0,0,1-.64648-0.64551V353.84082Z" transform="translate(-0.00014)"/>
        <path class="cls-1" d="M414.85156,353.84082a0.64563,0.64563,0,0,1,.64551-0.64648h9.72266a7.36426,7.36426,0,0,1,7.41211,7.30957,7.50164,7.50164,0,0,1-5.03223,6.86719l4.6582,8.63477a0.64366,0.64366,0,0,1-.57812.98633h-3.56934a0.58147,0.58147,0,0,1-.54395-0.30566l-4.52246-9.00977h-3.77344v8.66992a0.6681,0.6681,0,0,1-.64551.64551h-3.12793a0.64481,0.64481,0,0,1-.64551-0.64551V353.84082Zm9.99512,10.19824a3.46192,3.46192,0,0,0,3.36523-3.4668,3.38143,3.38143,0,0,0-3.36523-3.29785h-5.542v6.76465h5.542Z" transform="translate(-0.00014)"/>
      </g>
    </g>
  </g>
</svg>
