<svg id="Layer_2" data-name="Layer 2" xmlns="http://www.w3.org/2000/svg" viewBox="0 0 437.05322 390.04766">
  <defs>
    <style>
      .cls-1, .cls-2, .cls-6, .cls-7, .cls-8 {
        fill: #6bc1cf;
      }

      .cls-2, .cls-6, .cls-7, .cls-8 {
        font-size: 34px;
        font-family: Brandon Grotesque;
      }

      .cls-10, .cls-3, .cls-4 {
        font-weight: 700;
      }

      .cls-3 {
        letter-spacing: 1px;
      }

      .cls-4 {
        letter-spacing: 4px;
      }

      .cls-5 {
        letter-spacing: -1px;
      }

      .cls-6 {
        letter-spacing: -2.91262px;
      }

      .cls-7 {
        letter-spacing: -2.15054px;
      }

      .cls-8 {
        letter-spacing: -2.06186px;
      }

      .cls-9 {
        letter-spacing: 3px;
      }
    </style>
  </defs>
  <title>logo</title>
  <g>
    <g>
      <path class="cls-1" d="M215.4254,516.70062l83.7238-83.7238a11.33858,11.33858,0,0,0,3.321-8.01759V185.12651a5.66929,5.66929,0,0,0-5.66929-5.66929H244.79036a5.66929,5.66929,0,0,0-5.66929,5.66929V398.71918a11.33858,11.33858,0,0,1-3.321,8.01759L189.18535,453.3515a11.33858,11.33858,0,0,1-8.01759,3.321H92.904a5.66929,5.66929,0,0,0-5.66929,5.66929v52.01054a5.66929,5.66929,0,0,0,5.66929,5.66929h114.5038A11.33858,11.33858,0,0,0,215.4254,516.70062Z" transform="translate(-86.92236 -179.45722)"/>
      <path class="cls-1" d="M393.044,516.70062l-83.7238-83.7238a11.33858,11.33858,0,0,1-3.321-8.01759V185.12651a5.66929,5.66929,0,0,1,5.66929-5.66929h52.01054a5.66929,5.66929,0,0,1,5.66929,5.66929V398.71918a11.33858,11.33858,0,0,0,3.321,8.01759l46.61473,46.61473a11.33858,11.33858,0,0,0,8.01759,3.321h88.26375a5.66929,5.66929,0,0,1,5.66929,5.66929v52.01054a5.66929,5.66929,0,0,1-5.66929,5.66929H401.06163A11.33858,11.33858,0,0,1,393.044,516.70062Z" transform="translate(-86.92236 -179.45722)"/>
      <path class="cls-1" d="M336.08146,465.08057l-26.71738-26.91292a6.68976,6.68976,0,0,0-4.74759-1.97666h-0.00071a6.68976,6.68976,0,0,0-4.7476,1.97667l-26.71732,26.91292-49.74525,50.10932a2.83465,2.83465,0,0,0,2.01169,4.83172h51.40146a11.33858,11.33858,0,0,0,8.04678-3.35029L300.59275,500.829a5.66929,5.66929,0,0,1,8.04677,0l15.72727,15.84237a11.33858,11.33858,0,0,0,8.04677,3.35028H383.815a2.83465,2.83465,0,0,0,2.01169-4.83172Z" transform="translate(-86.92236 -179.45722)"/>
    </g>
    <text class="cls-2" transform="translate(0.653 376.992)"><tspan class="cls-3">JAMES</tspan><tspan class="cls-4" x="112.50488" y="0"> </tspan><tspan x="124.91455" y="0">ALEX</tspan><tspan class="cls-5" x="206.27588" y="0">A</tspan></text>
    <text class="cls-6" transform="translate(227.60075 376.992) scale(1.03 1)">N</text>
    <text class="cls-7" transform="translate(251.5197 376.992) scale(0.93 1)">D</text>
    <text class="cls-6" transform="translate(272.07243 376.992) scale(1.03 1)">E</text>
    <text class="cls-8" transform="translate(289.93181 376.992) scale(0.97 1)">R</text>
    <text class="cls-2" transform="translate(308.46696 376.992)"><tspan class="cls-9"> </tspan><tspan class="cls-10" x="10.67578" y="0">LESTER</tspan></text>
  </g>
</svg>
